<svg width="878" height="359" viewBox="0 0 878 359" fill="none" xmlns="http://www.w3.org/2000/svg">
<path d="M867.184 84.2288H10.8156C3.1978 84.2288 -1.53409 75.9308 2.36582 69.3756L39.623 6.73726C41.3909 3.77182 44.5889 1.95094 48.0468 1.92493L831.279 0.962463C834.815 0.962463 838.091 2.86138 839.833 5.95688L875.712 69.5577C879.404 76.1129 874.672 84.2028 867.158 84.2028L867.184 84.2288Z" fill="#7A5730" stroke="#785630" stroke-width="0.75" stroke-miterlimit="10"/>
<path d="M30.3153 357.012H12.0637C8.11177 357.012 4.88784 353.786 4.88784 349.832L1.27393 71.0029C1.27393 67.049 8.08577 84.7375 12.0637 84.7375H30.3153C34.2672 84.7375 36.0091 80.9137 36.0091 84.8936L37.4911 349.832C37.4911 353.786 34.2672 357.012 30.3153 357.012Z" fill="#7A5730" stroke="#785630" stroke-width="0.75" stroke-miterlimit="10"/>
<path d="M847.971 356.685H866.222C870.174 356.685 873.398 353.459 873.398 349.505L876.986 72.4972C876.986 68.5433 870.2 84.411 866.222 84.411H847.971C844.019 84.411 842.277 80.5871 842.277 84.567L840.795 349.505C840.795 353.459 844.019 356.685 847.971 356.685Z" fill="#7A5730" stroke="#785630" stroke-width="0.75" stroke-miterlimit="10"/>
<path d="M104.803 248.082H85.4079C82.5479 248.082 80.208 245.767 80.208 242.88L80.91 86.8041C80.91 83.9427 82.522 84.2028 85.3819 84.2028H104.777C107.637 84.2028 109.977 83.1883 109.977 86.0757V242.88C109.977 245.741 107.663 248.082 104.777 248.082H104.803Z" fill="#7A5730" stroke="#785630" stroke-width="0.75" stroke-miterlimit="10"/>
<path d="M789.654 248.082H770.258C767.399 248.082 765.059 245.767 765.059 242.88L765.761 86.8041C765.761 83.9427 767.373 84.2028 770.232 84.2028H789.628C792.488 84.2028 794.828 83.1883 794.828 86.0757V242.88C794.828 245.741 792.514 248.082 789.628 248.082H789.654Z" fill="#7A5730" stroke="#785630" stroke-width="0.75" stroke-miterlimit="10"/>
</svg>
