<svg width="240" height="160" viewBox="0 0 240 160" fill="none" xmlns="http://www.w3.org/2000/svg">
<path d="M119.976 99.1391V24.3443C81.9403 24.3443 51.1338 58.2449 51.1338 100.1L119.976 99.1391Z" fill="#EE7B16"/>
<path d="M119.976 99.1391V24.3443C158.011 24.3443 188.818 58.2449 188.818 100.1L119.976 99.1391Z" fill="#E8C520"/>
<path d="M37.0164 66.5732L51.8617 62.9963L47.3014 78.9056L37.0164 66.5732Z" fill="#EE7B16"/>
<path d="M46.6707 42.656L61.8071 44.0441L53.1716 57.8178L46.6707 42.656Z" fill="#EE7B16"/>
<path d="M60.3032 23.1699L75.1486 26.8002L64.815 39.1325L60.3032 23.1699Z" fill="#EE7B16"/>
<path d="M81.5524 5.87253L94.3117 14.9483L80.8247 22.5826L81.5524 5.87253Z" fill="#EE7B16"/>
<path d="M110.079 0L117.695 14.4678H102.51L110.079 0Z" fill="#EE7B16"/>
<path d="M49.7755 151.084C49.7755 156.156 46.6221 160 42.1103 160C37.5984 160 37.938 159.359 36.3856 159.146C36.5796 157.17 36.6767 154.288 36.6767 151.245V140.14C36.6767 134.748 36.4826 134.268 34.5905 134.481C34.4935 134.481 34.3965 134.428 34.3965 134.268C34.3965 134.107 34.3965 134.161 34.445 134.107C35.9004 133.36 37.5014 132.826 38.6172 132.506C38.7628 132.506 38.9083 132.452 39.0053 132.452C39.1994 132.452 39.2964 132.559 39.2479 132.933C39.0538 134.481 38.9568 137.631 38.9568 140.354V146.493C40.4123 144.785 42.4984 143.557 44.2934 143.557C47.4953 143.557 49.727 146.653 49.727 151.084H49.7755ZM47.1072 151.778C47.1072 147.988 45.5062 145.479 43.129 145.479C40.7518 145.479 40.3637 146.226 38.9568 147.401V155.729C38.9568 158.025 40.0241 158.719 42.2558 158.719C44.4875 158.719 47.0587 155.782 47.0587 151.778H47.1072Z" fill="#F1C597"/>
<path d="M61.1765 152.099C61.1765 147.241 64.0874 143.557 68.4051 143.557C72.7229 143.557 75.4397 146.386 75.4397 151.458C75.4397 156.53 72.4318 160 68.114 160C63.7963 160 61.1765 157.17 61.1765 152.099ZM72.7714 152.045C72.7714 147.561 70.9764 144.678 68.114 144.678C65.2517 144.678 63.8933 147.561 63.8933 151.512C63.8933 155.462 65.6883 158.986 68.5992 158.986C71.51 158.986 72.7714 156.049 72.7714 152.045Z" fill="#F1C597"/>
<path d="M86.8889 152.099C86.8889 147.241 89.7998 143.557 94.1175 143.557C98.4353 143.557 101.152 146.386 101.152 151.458C101.152 156.53 98.1442 160 93.8264 160C89.5087 160 86.8889 157.17 86.8889 152.099ZM98.4838 152.045C98.4838 147.561 96.6888 144.678 93.8264 144.678C90.9641 144.678 89.6057 147.561 89.6057 151.512C89.6057 155.462 91.4007 158.986 94.3116 158.986C97.2224 158.986 98.4838 156.049 98.4838 152.045Z" fill="#F1C597"/>
<path d="M128.272 159.519C128.272 159.573 128.272 159.733 128.126 159.733C127.059 159.893 126.186 160 125.555 160C123.323 160 122.596 158.772 119.685 153.754L118.423 151.511L116.677 151.672V154.021C116.677 158.665 116.774 158.932 118.86 159.253C119.054 159.253 118.957 159.733 118.86 159.733C116.725 159.519 114.542 159.519 112.408 159.733C112.262 159.733 112.213 159.306 112.359 159.253C114.3 158.932 114.494 158.665 114.494 154.021V140.087C114.494 134.695 114.251 134.214 112.311 134.428C112.213 134.428 112.116 134.428 112.116 134.214C112.116 134.001 112.116 134.107 112.213 134.054C113.669 133.307 115.318 132.719 116.337 132.452C116.531 132.452 116.628 132.399 116.725 132.399C116.919 132.399 117.016 132.506 117.016 132.879C116.822 134.428 116.725 137.578 116.725 140.3V150.924C118.763 150.604 119.685 150.284 120.801 148.896C122.984 146.013 122.935 145.105 120.364 144.571C120.17 144.571 120.267 144.037 120.412 144.037C122.741 144.197 124.73 144.197 126.962 144.037C127.107 144.037 127.156 144.518 126.962 144.571C125.895 144.945 124.827 145.746 122.984 147.828L120.558 150.604L121.771 152.472C125.7 158.505 126.331 159.253 128.126 159.253C128.223 159.253 128.32 159.359 128.32 159.519H128.272Z" fill="#F1C597"/>
<path d="M145.155 159.413C145.155 159.519 145.106 159.68 145.009 159.68C142.778 159.466 140.4 159.466 138.169 159.68C138.072 159.68 137.975 159.519 137.975 159.413C137.975 159.306 137.975 159.199 138.072 159.199C140.255 158.879 140.449 158.612 140.449 153.967V140.033C140.449 134.641 140.206 134.161 138.266 134.374C138.12 134.374 138.072 134.054 138.217 134.054C139.673 133.307 141.371 132.719 142.341 132.452C142.486 132.452 142.68 132.399 142.778 132.399C142.972 132.399 143.069 132.506 143.02 132.879C142.826 134.428 142.778 137.578 142.778 140.3V153.967C142.778 158.612 142.972 158.825 145.106 159.199C145.155 159.199 145.203 159.253 145.203 159.413H145.155Z" fill="#F1C597"/>
<path d="M162.814 159.413C162.814 159.52 162.717 159.68 162.62 159.68C160.436 159.466 158.011 159.466 155.779 159.68C155.731 159.68 155.634 159.52 155.634 159.359C155.634 159.199 155.634 159.199 155.682 159.199C157.865 158.879 158.059 158.612 158.059 153.967V151.298C158.059 145.959 157.865 145.479 155.876 145.746C155.731 145.746 155.682 145.425 155.828 145.319C157.283 144.571 159.078 143.931 160.145 143.717C160.533 143.664 160.631 143.717 160.582 144.144C160.485 145.746 160.339 148.896 160.339 151.618V154.021C160.339 158.665 160.533 158.879 162.668 159.253C162.765 159.253 162.814 159.359 162.814 159.466V159.413ZM157.089 136.563C157.089 135.389 157.914 134.535 159.03 134.535C160.145 134.535 160.873 135.442 160.873 136.563C160.873 137.684 160.048 138.645 159.03 138.645C158.011 138.645 157.089 137.738 157.089 136.563Z" fill="#F1C597"/>
<path d="M177.805 137.738V144.037H183.093C182.899 144.945 182.365 145.692 181.686 145.692H177.805V154.021C177.805 158.665 178.047 158.825 181.007 159.253C181.152 159.253 181.055 159.733 180.958 159.733C178.144 159.466 175.718 159.466 173.487 159.733C173.341 159.733 173.293 159.306 173.438 159.253C175.379 158.932 175.573 158.665 175.573 154.021V145.692H173.293C173.196 145.692 173.147 145.479 173.147 145.372C173.147 145.265 173.147 145.319 173.147 145.265L175.524 143.824V139.66C175.524 135.389 178.532 132.452 181.346 132.452C184.16 132.452 182.607 132.506 183.141 132.773C183.578 132.986 183.723 133.413 183.723 133.894C183.723 134.801 183.093 135.869 182.413 135.869C181.734 135.869 180.521 134.588 179.357 134.588C178.193 134.588 177.805 135.335 177.805 137.684V137.738Z" fill="#F1C597"/>
<path d="M205.943 156.316C205.943 156.316 205.943 156.37 205.943 156.476C205.264 158.612 202.45 160 200.267 160C196.192 160 193.717 157.01 193.717 152.152C193.717 147.294 196.774 143.557 200.606 143.557C204.439 143.557 206.185 145.959 205.797 149.803H196.483C196.434 150.284 196.386 150.764 196.386 151.245C196.386 155.409 198.181 157.811 201.383 157.811C204.584 157.811 204.536 157.17 205.652 155.996C205.846 155.996 205.943 156.049 205.943 156.316ZM196.628 148.735L202.062 148.575C202.886 148.575 203.226 148.255 203.226 147.614C203.226 146.013 202.013 144.625 200.315 144.625C198.617 144.625 197.162 146.226 196.58 148.735H196.628Z" fill="#F1C597"/>
<path d="M0 126.74L16.5919 126.26L37.1134 125.459L50.3578 124.978L69.3754 124.391L86.2583 123.911L107.944 123.323H109.739V127.221H130.455V123.323L154.955 124.017C154.955 124.017 179.551 124.818 180.376 124.711C181.201 124.605 205.943 125.886 206.768 125.779C207.592 125.672 233.499 126.58 233.499 126.58L240 126.847V125.299L236.07 118.839L235.973 116.864L230.394 108.268L223.796 98.285L220.061 92.8929C220.061 92.8929 218.411 91.665 218.072 91.7718C217.732 91.8786 214.579 86.6467 214.579 86.6467C214.579 86.6467 204.294 84.1909 201.916 83.7104C199.539 83.2299 191.243 82.269 187.459 82.1622C183.675 82.0554 177.562 81.7351 175.233 81.7351C172.905 81.7351 164.269 82.4825 162.717 82.6961C161.164 82.9096 151.85 84.8315 150.734 85.0451C149.618 85.2586 135.937 89.583 134.918 89.9567C133.899 90.3304 126.477 94.281 126.477 94.281L119.927 98.979C119.927 98.979 112.602 93.2666 110.564 92.4658C108.526 91.665 98.9206 87.5543 95.9127 86.9136C92.9048 86.273 82.4257 83.3901 80.1455 83.0164C77.8654 82.6427 67.0952 81.7885 63.6507 81.7351C60.2062 81.6817 51.134 82.3224 49.6786 82.3224C48.2232 82.3224 38.2777 83.3901 31.4857 85.0985C24.6938 86.8069 25.1789 86.5399 25.1789 86.5399L22.074 91.9854C22.074 91.9854 20.0849 92.1455 19.5512 93.0531C19.0176 93.9607 14.8939 100.207 14.8939 100.207L9.41177 108.589L3.88114 117.131L3.7356 118.946L0.3396 124.231L0 126.687V126.74Z" fill="#F28F28"/>
<path d="M0.242571 124.925L11.0613 124.658L32.9412 124.071L52.3954 123.27L77.3802 122.256L101.443 121.455H111.34V125.726L128.757 125.512V122.683L128.32 121.455L157.283 122.202L187.314 123.217L216.277 124.178L235.731 124.872L239.854 125.032L240 125.245V126.847L237.38 126.687L231.364 126.473L227.047 126.313L222.923 126.206L219.187 126.046L216.082 125.993L210.358 125.779L204.439 125.672L196.919 125.352L190.952 125.085L180.667 124.658L174.021 124.551L165.191 124.284L157.914 124.071L151.656 123.911L145.882 123.75L141.516 123.59L134.336 123.43L130.455 123.323V127.221H125.943H119.539H109.739V123.323L102.22 123.484L81.4069 124.017L72.3833 124.284L62.6804 124.605L58.6537 124.711L50.3578 124.978L41.6737 125.299L37.0164 125.459L35.0273 125.512L26.9739 125.833L15.9612 126.26L6.06428 126.527L0 126.74L0.242571 124.925Z" fill="#EC7914"/>
<path d="M3.88114 117.184L3.7356 118.999L3.88114 120.601V121.775C3.88114 121.775 7.76228 121.348 9.36325 121.134C10.9642 120.921 22.9958 119.213 22.9958 119.213L34.6392 117.931C34.6392 117.931 50.2122 116.116 50.5033 116.169C50.7944 116.223 68.7447 115.582 68.7447 115.582L82.5712 115.849L96.0097 117.13L109.933 119.533C109.933 119.533 111.583 119.8 111.68 120.28C111.777 120.761 111.68 122.683 111.68 122.683L125.264 123.003H128.223V121.028C128.223 121.028 128.32 119.746 129.339 119.693C130.358 119.64 139.43 117.824 139.43 117.824L151.898 116.436L160.243 115.956L172.08 115.636L191.437 116.223L204.002 117.558L228.065 120.547L236.555 121.882L236.119 118.892L236.022 116.917L232.286 116.757L224.184 115.903L213.705 114.515L208.272 113.767L202.45 113.18L195.901 112.379L188.817 111.792L176.155 111.098C176.155 111.098 156.895 111.418 155.876 111.418C154.857 111.418 144.524 112.86 144.524 112.86C144.524 112.86 134.093 114.835 130.358 116.49C126.622 118.145 121.189 120.494 120.703 120.974C120.218 121.455 119.879 121.508 119.879 121.508C119.879 121.508 113.96 117.824 111.486 117.024C109.012 116.223 102.656 114.087 101.734 113.981C100.813 113.874 91.2553 112.219 90.3335 112.165C89.4118 112.112 78.9812 110.938 77.6228 111.044C76.2644 111.151 59.1389 111.044 59.1389 111.044L44.0024 112.379L30.8065 113.767L11.789 116.383L5.67616 117.024L3.78411 117.184H3.88114Z" fill="#F6EADB"/>
<path d="M119.976 99.246L119.927 107.361V115.315V121.188" stroke="#EC7914" stroke-linecap="round" stroke-linejoin="round"/>
<path d="M118.86 120.814C118.86 120.814 113.669 115.849 112.116 114.995C110.564 114.141 101.831 109.656 96.6403 108.322C91.4493 106.987 83.6385 105.439 81.3098 105.225C78.9812 105.012 69.909 104.425 69.909 104.425H42.3529C42.3529 104.425 33.7659 105.279 32.2134 105.385C30.661 105.492 21.5403 106.827 21.5403 106.827L13.2444 108.589C13.2444 108.589 10.3335 109.87 11.2068 108.535C12.08 107.201 16.4948 100.581 16.4948 100.581L21.0551 93.4269L22.1225 91.932C22.1225 91.932 21.8799 91.932 21.5403 91.9854C20.9096 92.0922 20.0363 92.3591 19.7938 92.6795C19.4542 93.1599 16.5433 97.6978 16.5433 97.6978L14.5057 100.794L12.0315 104.585L6.50087 113.127L3.8811 117.131L6.50087 116.864L9.70281 116.543L14.1176 116.009L18.3869 115.422L22.8017 114.835L32.3105 113.554L37.7926 112.966L43.1776 112.379L49.8241 111.792L55.6458 111.258L59.2359 110.938H65.0576H68.9387H73.8386H78.1564L81.1643 111.151L84.9484 111.525L88.8296 111.899C88.8296 111.899 96.0582 112.86 96.9314 113.073C97.8047 113.287 101.783 113.874 101.783 113.874C101.783 113.874 105.324 114.888 105.518 114.942C105.713 114.995 109.011 116.063 109.011 116.063L112.407 117.237L117.21 119.8L118.763 120.707L118.86 120.814Z" fill="#DBCDBF"/>
<path d="M121.431 120.387C121.431 120.387 125.215 117.184 125.749 116.863C126.283 116.543 130.6 113.714 130.94 113.5C131.28 113.287 139.43 109.496 140.352 109.229C141.273 108.962 151.947 106.4 153.208 106.133C154.469 105.866 163.202 105.065 163.93 104.958C164.657 104.851 176.98 104.157 177.853 104.211C178.726 104.264 196.871 104.638 197.987 104.745C199.102 104.851 210.891 105.492 212.25 105.759C213.608 106.026 226.804 108.589 226.804 108.589C226.804 108.589 230.152 110.083 228.648 108.161C227.144 106.24 223.068 99.7263 223.068 99.7263L219.236 93.9606L218.266 92.092L217.926 91.6116C217.926 91.6116 218.266 91.7183 218.508 91.8251C218.751 91.9319 218.702 91.9319 218.848 91.9853C219.09 92.092 219.236 92.2522 219.478 92.4124C219.721 92.5725 219.964 92.6793 220.158 92.8929C220.352 93.1064 220.4 93.2665 220.594 93.5335L223.457 97.6443L226.853 102.769L230.103 107.681L233.839 113.447L235.779 116.436L236.022 116.757L231.753 116.543L228.599 116.223L224.475 115.796L217.78 114.888L213.269 114.301L205.555 113.34L202.207 112.966L198.472 112.539L193.475 112.005L190.418 111.738L185.276 111.418L180.23 111.151L176.204 110.938L167.956 111.044L160.097 111.151L155.537 111.258L151.267 111.792L146.562 112.432C146.562 112.432 143.505 112.913 142.826 113.073C142.147 113.233 137.538 114.248 137.538 114.248C137.538 114.248 132.056 115.742 131.522 115.956C130.988 116.169 126.186 118.305 126.186 118.305L122.256 120.12L121.48 120.334L121.431 120.387Z" fill="#DBCDBF"/>
<path d="M25.179 86.2729L24.7909 86.8602L21.686 91.9853L16.5435 100.153L12.0802 107.04C12.0802 107.04 9.60595 109.763 11.7891 109.122C13.9722 108.482 24.0147 106.4 24.4998 106.4C24.985 106.4 33.8146 105.118 34.8334 105.225C35.8522 105.332 48.3203 104.478 48.3203 104.478H60.7885L71.2676 104.585C71.2676 104.585 81.407 105.279 82.2318 105.385C83.0565 105.492 96.6405 108.108 98.0474 108.749C99.4543 109.389 101.637 110.35 104.985 111.632C108.332 112.913 108.478 113.126 109.982 113.874C111.486 114.621 111.583 114.728 112.262 115.155C112.941 115.582 113.135 115.689 113.523 116.063C117.55 120.44 120.121 121.668 120.121 121.668C120.121 121.668 121.916 120.547 123.857 119.159C127.302 116.65 131.716 112.966 132.347 112.859C133.754 112.699 140.837 109.122 142.729 108.695C144.621 108.268 150.346 106.827 150.346 106.827C150.346 106.827 157.574 105.546 158.448 105.546C159.321 105.546 170.043 104.318 171.061 104.478C172.08 104.638 182.462 104.478 182.462 104.478L201.14 104.958L212.687 105.866L225.3 108.322C225.3 108.322 228.405 109.656 228.987 109.069C229.57 108.482 228.793 108.268 228.308 107.574C226.368 104.851 223.554 100.207 223.554 100.207L218.314 92.3056L214.87 87.0203C214.87 87.0203 213.996 85.9526 212.153 85.6857C210.309 85.4187 200.17 83.1765 199.297 83.0163C198.423 82.8562 189.012 81.8952 187.75 81.8418C186.489 81.7884 169.849 81.4681 169.315 81.5749C168.781 81.6816 161.456 82.4824 160.728 82.5892C160 82.696 149.084 85.3119 148.842 85.3119C148.599 85.3119 141.322 87.661 141.322 87.661C141.322 87.661 133.317 89.8498 130.455 91.2913C127.593 92.7327 122.499 96.4164 122.499 96.4164L119.976 98.2849L114.348 94.1208C114.348 94.1208 106.004 89.743 105.228 89.5829C104.451 89.4227 92.8079 85.3119 92.4683 85.2586C92.1287 85.2052 82.6684 82.696 82.6684 82.696C82.6684 82.696 73.3052 81.6283 71.3161 81.5215C69.327 81.4147 62.8261 81.5215 62.8261 81.5215C62.8261 81.5215 51.5223 81.8418 49.3391 82.0554C47.156 82.2689 39.3452 82.9629 37.6472 83.39C35.9492 83.8171 29.3027 85.3653 29.3027 85.3653C29.3027 85.3653 25.6156 85.739 25.2275 86.3263L25.179 86.2729Z" fill="#F8F6F3"/>
</svg>
